<?xml version="1.0" standalone="no"?>
<!DOCTYPE svg PUBLIC "-//W3C//DTD SVG 20010904//EN"
 "http://www.w3.org/TR/2001/REC-SVG-20010904/DTD/svg10.dtd">
<svg version="1.0" xmlns="http://www.w3.org/2000/svg"
 width="191.000000pt" height="191.000000pt" viewBox="0 0 191.000000 191.000000"
 preserveAspectRatio="xMidYMid meet">
<metadata>
Created by potrace 1.14, written by Peter Selinger 2001-2017
</metadata>
<g transform="translate(0.000000,191.000000) scale(0.100000,-0.100000)"
fill="#000000" stroke="none">
<path d="M1422 1309 c-61 -38 -99 -118 -148 -309 -2 -8 -13 -52 -25 -97 l-22
-82 -34 3 c-18 2 -55 -1 -81 -6 -130 -24 -191 -12 -193 40 -3 59 2 91 22 137
26 58 79 134 109 155 l30 21 0 -33 c0 -65 47 -95 87 -55 15 14 30 91 25 124
-6 37 -55 78 -96 81 -45 3 -113 -25 -153 -65 -46 -45 -108 -142 -132 -208 -29
-77 -32 -176 -7 -228 26 -54 88 -104 139 -111 94 -14 221 19 271 70 14 13 21
15 24 6 6 -19 53 -14 77 8 l22 21 36 -21 c49 -29 119 -25 194 12 66 33 89 55
107 101 22 54 0 131 -48 163 l-24 15 30 49 c26 42 30 56 25 95 -6 60 -44 101
-112 120 -60 17 -88 16 -123 -6z m97 -108 c20 -13 5 -42 -42 -78 -23 -17 -43
-30 -45 -28 -7 7 20 79 36 98 17 19 30 21 51 8z m-89 -249 c0 10 104 -18 107
-29 7 -21 -46 -46 -103 -48 -65 -3 -70 4 -54 65 11 41 12 41 31 24 10 -9 19
-15 19 -12z"/>
<path d="M702 1212 c-15 -16 -36 -45 -46 -64 -18 -33 -22 -35 -72 -36 l-54 -1
0 33 c0 75 -70 69 -112 -10 -19 -37 -30 -46 -63 -55 -106 -27 -135 -46 -135
-88 0 -30 28 -52 59 -46 11 2 23 0 26 -5 9 -15 -14 -50 -31 -50 -27 0 -92 -42
-97 -62 -3 -11 4 -30 18 -46 15 -18 20 -33 15 -42 -14 -25 -19 -83 -10 -101
27 -49 76 -23 126 67 37 67 33 64 132 78 22 3 23 1 19 -46 -4 -40 -1 -54 15
-70 19 -19 20 -19 50 4 17 13 43 47 57 76 19 38 34 54 59 62 60 21 80 64 46
101 -14 16 -14 21 2 54 11 24 28 41 46 47 38 13 51 39 33 65 -12 17 -12 27 0
65 25 84 -28 129 -83 70z m-177 -264 c-4 -13 -8 -24 -9 -24 0 -1 -23 -5 -49
-8 -48 -7 -48 -6 -36 16 16 30 22 33 65 36 33 3 35 1 29 -20z"/>
</g>
</svg>
